<mxfile host="app.diagrams.net" modified="2023-05-07T11:56:31.452Z" agent="Mozilla/5.0 (Macintosh; Intel Mac OS X 10_15_7) AppleWebKit/537.36 (KHTML, like Gecko) Chrome/110.0.0.0 YaBrowser/23.3.3.709 Yowser/2.5 Safari/537.36" etag="lFKITrIiGn44-m7Cu6pb" version="21.2.3" type="device">
  <diagram name="Страница 1" id="RWrQhtTtOEWSGAgQj1zY">
    <mxGraphModel dx="2462" dy="2162" grid="1" gridSize="10" guides="1" tooltips="1" connect="1" arrows="1" fold="1" page="1" pageScale="1" pageWidth="827" pageHeight="1169" math="0" shadow="0">
      <root>
        <mxCell id="0" />
        <mxCell id="1" parent="0" />
        <mxCell id="BWCVKH76uyNcYksHZI7m-1" value="client" style="shape=umlActor;verticalLabelPosition=bottom;verticalAlign=top;html=1;outlineConnect=0;" vertex="1" parent="1">
          <mxGeometry x="610" y="-10" width="30" height="60" as="geometry" />
        </mxCell>
        <mxCell id="BWCVKH76uyNcYksHZI7m-4" value="access-token" style="edgeLabel;html=1;align=center;verticalAlign=middle;resizable=0;points=[];" vertex="1" connectable="0" parent="1">
          <mxGeometry x="135.10535085002084" y="277.95048509239405" as="geometry" />
        </mxCell>
        <mxCell id="BWCVKH76uyNcYksHZI7m-5" value="" style="rounded=0;whiteSpace=wrap;html=1;" vertex="1" parent="1">
          <mxGeometry x="163" y="92.5" width="251" height="150" as="geometry" />
        </mxCell>
        <mxCell id="BWCVKH76uyNcYksHZI7m-6" value="Сервис auth" style="rounded=0;whiteSpace=wrap;html=1;strokeColor=none;" vertex="1" parent="1">
          <mxGeometry x="178" y="102.5" width="220" height="30" as="geometry" />
        </mxCell>
        <mxCell id="BWCVKH76uyNcYksHZI7m-7" value="&lt;br&gt;PostgreSQL (User-data)" style="shape=cylinder3;whiteSpace=wrap;html=1;boundedLbl=1;backgroundOutline=1;size=15;align=center;" vertex="1" parent="1">
          <mxGeometry x="303" y="130" width="80" height="85" as="geometry" />
        </mxCell>
        <mxCell id="BWCVKH76uyNcYksHZI7m-8" value="Flask" style="rounded=0;whiteSpace=wrap;html=1;" vertex="1" parent="1">
          <mxGeometry x="193" y="152.5" width="74" height="40" as="geometry" />
        </mxCell>
        <mxCell id="BWCVKH76uyNcYksHZI7m-9" value="" style="endArrow=classic;startArrow=classic;html=1;rounded=0;entryX=0;entryY=0.5;entryDx=0;entryDy=0;entryPerimeter=0;exitX=1;exitY=0.5;exitDx=0;exitDy=0;" edge="1" parent="1" source="BWCVKH76uyNcYksHZI7m-8" target="BWCVKH76uyNcYksHZI7m-7">
          <mxGeometry width="50" height="50" relative="1" as="geometry">
            <mxPoint x="483" y="302.5" as="sourcePoint" />
            <mxPoint x="533" y="252.5" as="targetPoint" />
          </mxGeometry>
        </mxCell>
        <mxCell id="BWCVKH76uyNcYksHZI7m-10" value="&lt;div style=&quot;border-color: var(--border-color);&quot;&gt;Сервис хранит данные&lt;/div&gt;&lt;div style=&quot;border-color: var(--border-color);&quot;&gt;о пользователях&lt;/div&gt;&lt;div style=&quot;border-color: var(--border-color);&quot;&gt;и производит их&lt;/div&gt;&lt;div style=&quot;border-color: var(--border-color);&quot;&gt;аутентификацию&amp;nbsp;&lt;/div&gt;&lt;div style=&quot;border-color: var(--border-color);&quot;&gt;и авторизацию.&lt;/div&gt;&lt;div style=&quot;border-color: var(--border-color);&quot;&gt;Также сервис обеспечивает работу с ролями пользователя.&lt;/div&gt;&lt;div style=&quot;border-color: var(--border-color);&quot;&gt;По этим ролям может осуществляться доступ к контенту кинотеатра.&lt;/div&gt;" style="strokeWidth=2;html=1;shape=mxgraph.flowchart.annotation_2;align=left;labelPosition=right;pointerEvents=1;" vertex="1" parent="1">
          <mxGeometry x="243" y="267.5" width="50" height="102.5" as="geometry" />
        </mxCell>
        <mxCell id="BWCVKH76uyNcYksHZI7m-12" value="" style="endArrow=none;html=1;rounded=0;exitX=0;exitY=0.5;exitDx=0;exitDy=0;exitPerimeter=0;entryX=0.25;entryY=1;entryDx=0;entryDy=0;" edge="1" parent="1" source="BWCVKH76uyNcYksHZI7m-10" target="BWCVKH76uyNcYksHZI7m-5">
          <mxGeometry width="50" height="50" relative="1" as="geometry">
            <mxPoint x="493" y="417.5" as="sourcePoint" />
            <mxPoint x="543" y="367.5" as="targetPoint" />
          </mxGeometry>
        </mxCell>
        <mxCell id="BWCVKH76uyNcYksHZI7m-13" value="" style="rounded=0;whiteSpace=wrap;html=1;" vertex="1" parent="1">
          <mxGeometry x="163" y="410" width="250" height="150" as="geometry" />
        </mxCell>
        <mxCell id="BWCVKH76uyNcYksHZI7m-14" value="Сервис user_profile" style="rounded=0;whiteSpace=wrap;html=1;strokeColor=none;" vertex="1" parent="1">
          <mxGeometry x="178" y="420" width="220" height="30" as="geometry" />
        </mxCell>
        <mxCell id="BWCVKH76uyNcYksHZI7m-15" value="MongoDB&lt;br&gt;(user_profile)" style="shape=cylinder3;whiteSpace=wrap;html=1;boundedLbl=1;backgroundOutline=1;size=15;" vertex="1" parent="1">
          <mxGeometry x="303" y="460" width="80" height="90" as="geometry" />
        </mxCell>
        <mxCell id="BWCVKH76uyNcYksHZI7m-16" value="FastApi" style="rounded=0;whiteSpace=wrap;html=1;" vertex="1" parent="1">
          <mxGeometry x="193" y="470" width="74" height="40" as="geometry" />
        </mxCell>
        <mxCell id="BWCVKH76uyNcYksHZI7m-17" value="" style="endArrow=classic;startArrow=classic;html=1;rounded=0;entryX=0;entryY=0.5;entryDx=0;entryDy=0;entryPerimeter=0;exitX=1;exitY=0.5;exitDx=0;exitDy=0;" edge="1" parent="1" source="BWCVKH76uyNcYksHZI7m-16" target="BWCVKH76uyNcYksHZI7m-15">
          <mxGeometry width="50" height="50" relative="1" as="geometry">
            <mxPoint x="483" y="620" as="sourcePoint" />
            <mxPoint x="533" y="570" as="targetPoint" />
          </mxGeometry>
        </mxCell>
        <mxCell id="BWCVKH76uyNcYksHZI7m-18" value="&lt;div style=&quot;border-color: var(--border-color);&quot;&gt;Сервис отвечает за хранение&lt;/div&gt;&lt;div style=&quot;border-color: var(--border-color);&quot;&gt;профиля пользователей.&lt;/div&gt;&lt;div style=&quot;border-color: var(--border-color);&quot;&gt;Здесь для каждого пользователя&amp;nbsp;&lt;/div&gt;&lt;div style=&quot;border-color: var(--border-color);&quot;&gt;можно хранить идентификаторы купленных&lt;/div&gt;&lt;div style=&quot;border-color: var(--border-color);&quot;&gt;фильмов, или фильмов, на которые&lt;/div&gt;&lt;div style=&quot;border-color: var(--border-color);&quot;&gt;пользователь подписался, а&lt;/div&gt;&lt;div style=&quot;border-color: var(--border-color);&quot;&gt;также другую информацию по пользователю.&lt;/div&gt;&lt;div style=&quot;border-color: var(--border-color);&quot;&gt;&lt;br&gt;&lt;/div&gt;&lt;div style=&quot;border-color: var(--border-color);&quot;&gt;API:&lt;/div&gt;&lt;div style=&quot;border-color: var(--border-color);&quot;&gt;- стандартный CRUD для профиля пользователя.&lt;/div&gt;" style="strokeWidth=2;html=1;shape=mxgraph.flowchart.annotation_2;align=left;labelPosition=right;pointerEvents=1;" vertex="1" parent="1">
          <mxGeometry x="243" y="580" width="50" height="160" as="geometry" />
        </mxCell>
        <mxCell id="BWCVKH76uyNcYksHZI7m-19" value="" style="endArrow=none;html=1;rounded=0;exitX=0;exitY=0.5;exitDx=0;exitDy=0;exitPerimeter=0;entryX=0.25;entryY=1;entryDx=0;entryDy=0;" edge="1" parent="1" source="BWCVKH76uyNcYksHZI7m-18" target="BWCVKH76uyNcYksHZI7m-13">
          <mxGeometry width="50" height="50" relative="1" as="geometry">
            <mxPoint x="493" y="415" as="sourcePoint" />
            <mxPoint x="543" y="365" as="targetPoint" />
          </mxGeometry>
        </mxCell>
        <mxCell id="BWCVKH76uyNcYksHZI7m-21" value="" style="rounded=0;whiteSpace=wrap;html=1;" vertex="1" parent="1">
          <mxGeometry x="770" y="170" width="330" height="400" as="geometry" />
        </mxCell>
        <mxCell id="BWCVKH76uyNcYksHZI7m-22" value="Сервис billing" style="rounded=0;whiteSpace=wrap;html=1;strokeColor=none;" vertex="1" parent="1">
          <mxGeometry x="825" y="177.5" width="220" height="30" as="geometry" />
        </mxCell>
        <mxCell id="BWCVKH76uyNcYksHZI7m-23" value="&lt;div style=&quot;border-color: var(--border-color);&quot;&gt;Сервис отвечает за биллинг.&lt;/div&gt;&lt;div style=&quot;border-color: var(--border-color);&quot;&gt;Тут авторизованный пользователь&amp;nbsp;&lt;/div&gt;&lt;div style=&quot;border-color: var(--border-color);&quot;&gt;может оплатить или отменить подписку.&lt;/div&gt;&lt;div style=&quot;border-color: var(--border-color);&quot;&gt;Купить или вернуть деньги за фильм.&lt;/div&gt;&lt;div style=&quot;border-color: var(--border-color);&quot;&gt;Пу сути он является оберткой&amp;nbsp;&lt;/div&gt;&lt;div style=&quot;border-color: var(--border-color);&quot;&gt;для запросов к платежному шлюзу.&lt;/div&gt;&lt;div style=&quot;border-color: var(--border-color);&quot;&gt;В качестве платежного шлюза было решено&lt;/div&gt;&lt;div style=&quot;border-color: var(--border-color);&quot;&gt;выбрать stripe (хорошая документация по API,&lt;/div&gt;&lt;div style=&quot;border-color: var(--border-color);&quot;&gt;много примеров по работе на Djanog, FastAPI, Flask).&lt;/div&gt;&lt;div style=&quot;border-color: var(--border-color);&quot;&gt;&lt;br&gt;&lt;/div&gt;&lt;div style=&quot;border-color: var(--border-color);&quot;&gt;API:&lt;/div&gt;&lt;div style=&quot;border-color: var(--border-color);&quot;&gt;- подписка на наш кинотеатр (дает доступ к большему количеству фильмов)&lt;/div&gt;&lt;div style=&quot;border-color: var(--border-color);&quot;&gt;- отмена подписки&lt;/div&gt;&lt;div style=&quot;border-color: var(--border-color);&quot;&gt;- покупка фильма&lt;/div&gt;&lt;div style=&quot;border-color: var(--border-color);&quot;&gt;- отмена покупки фильма (возврат денег, тут можно подумать над тем, чтобы&lt;/div&gt;&lt;div style=&quot;border-color: var(--border-color);&quot;&gt;&amp;nbsp;не давать пользователю возвращать деньги на фильм, если он уже начал просмотр.)&lt;/div&gt;&lt;div style=&quot;border-color: var(--border-color);&quot;&gt;&lt;br&gt;&lt;/div&gt;&lt;div style=&quot;border-color: var(--border-color);&quot;&gt;&lt;br&gt;&lt;/div&gt;" style="strokeWidth=2;html=1;shape=mxgraph.flowchart.annotation_2;align=left;labelPosition=right;pointerEvents=1;" vertex="1" parent="1">
          <mxGeometry x="1100" y="170" width="50" height="220" as="geometry" />
        </mxCell>
        <mxCell id="BWCVKH76uyNcYksHZI7m-26" value="" style="endArrow=classic;startArrow=classic;html=1;rounded=0;entryX=0.5;entryY=0.5;entryDx=0;entryDy=0;entryPerimeter=0;exitX=0.5;exitY=0;exitDx=0;exitDy=0;" edge="1" parent="1" source="BWCVKH76uyNcYksHZI7m-5" target="BWCVKH76uyNcYksHZI7m-1">
          <mxGeometry width="50" height="50" relative="1" as="geometry">
            <mxPoint x="340" y="300" as="sourcePoint" />
            <mxPoint x="390" y="250" as="targetPoint" />
          </mxGeometry>
        </mxCell>
        <mxCell id="BWCVKH76uyNcYksHZI7m-30" value="Регистрируемся, проходим аутентификацию и авторизацию." style="edgeLabel;html=1;align=center;verticalAlign=middle;resizable=0;points=[];" vertex="1" connectable="0" parent="BWCVKH76uyNcYksHZI7m-26">
          <mxGeometry x="-0.1864" y="3" relative="1" as="geometry">
            <mxPoint as="offset" />
          </mxGeometry>
        </mxCell>
        <mxCell id="BWCVKH76uyNcYksHZI7m-27" value="" style="rounded=0;whiteSpace=wrap;html=1;" vertex="1" parent="1">
          <mxGeometry x="880" y="257.95" width="120" height="132.05" as="geometry" />
        </mxCell>
        <mxCell id="BWCVKH76uyNcYksHZI7m-28" value="stripe" style="rounded=0;whiteSpace=wrap;html=1;" vertex="1" parent="1">
          <mxGeometry x="880" y="470" width="120" height="60" as="geometry" />
        </mxCell>
        <mxCell id="BWCVKH76uyNcYksHZI7m-29" value="" style="endArrow=classic;startArrow=classic;html=1;rounded=0;entryX=0.5;entryY=0.5;entryDx=0;entryDy=0;entryPerimeter=0;exitX=0.5;exitY=0;exitDx=0;exitDy=0;" edge="1" parent="1" source="BWCVKH76uyNcYksHZI7m-21" target="BWCVKH76uyNcYksHZI7m-1">
          <mxGeometry width="50" height="50" relative="1" as="geometry">
            <mxPoint x="430" y="360" as="sourcePoint" />
            <mxPoint x="480" y="310" as="targetPoint" />
          </mxGeometry>
        </mxCell>
        <mxCell id="BWCVKH76uyNcYksHZI7m-31" value="Авторизованный пользователь может осуществлять&lt;br&gt;&amp;nbsp;покупку подписок или фильмов" style="edgeLabel;html=1;align=center;verticalAlign=middle;resizable=0;points=[];" vertex="1" connectable="0" parent="BWCVKH76uyNcYksHZI7m-29">
          <mxGeometry x="0.0091" y="-1" relative="1" as="geometry">
            <mxPoint y="1" as="offset" />
          </mxGeometry>
        </mxCell>
        <mxCell id="BWCVKH76uyNcYksHZI7m-33" value="" style="endArrow=classic;startArrow=classic;html=1;rounded=0;entryX=0.5;entryY=1;entryDx=0;entryDy=0;" edge="1" parent="1" source="BWCVKH76uyNcYksHZI7m-28" target="BWCVKH76uyNcYksHZI7m-27">
          <mxGeometry width="50" height="50" relative="1" as="geometry">
            <mxPoint x="430" y="350" as="sourcePoint" />
            <mxPoint x="480" y="300" as="targetPoint" />
          </mxGeometry>
        </mxCell>
        <mxCell id="BWCVKH76uyNcYksHZI7m-39" value="1) Взаимодействие с&amp;nbsp; API stripe&lt;br&gt;2) подписка на webhook с целью реакции на события оплаты." style="edgeLabel;html=1;align=center;verticalAlign=middle;resizable=0;points=[];" vertex="1" connectable="0" parent="BWCVKH76uyNcYksHZI7m-33">
          <mxGeometry x="0.1333" y="-1" relative="1" as="geometry">
            <mxPoint x="-6" y="5" as="offset" />
          </mxGeometry>
        </mxCell>
        <mxCell id="BWCVKH76uyNcYksHZI7m-36" value="FastAPI/Django" style="rounded=0;whiteSpace=wrap;html=1;strokeColor=none;" vertex="1" parent="1">
          <mxGeometry x="908.5" y="267.5" width="63" height="30" as="geometry" />
        </mxCell>
        <mxCell id="BWCVKH76uyNcYksHZI7m-38" value="webhook" style="rounded=0;whiteSpace=wrap;html=1;strokeColor=default;" vertex="1" parent="1">
          <mxGeometry x="908.5" y="330" width="63" height="30" as="geometry" />
        </mxCell>
        <mxCell id="BWCVKH76uyNcYksHZI7m-40" value="1)&amp;nbsp; При покупке фильма через API сервиса user_profile&amp;nbsp;&lt;br&gt;добавляем ему купленный фильм.&lt;br&gt;2) При отмене покупки фильма через API сервиса user_profile&lt;br&gt;удаляем у него купленный фильм.&amp;nbsp;&amp;nbsp;" style="endArrow=classic;html=1;rounded=0;exitX=0;exitY=0.5;exitDx=0;exitDy=0;entryX=1;entryY=0.5;entryDx=0;entryDy=0;align=left;" edge="1" parent="1" source="BWCVKH76uyNcYksHZI7m-21" target="BWCVKH76uyNcYksHZI7m-13">
          <mxGeometry x="0.773" y="-44" width="50" height="50" relative="1" as="geometry">
            <mxPoint x="430" y="550" as="sourcePoint" />
            <mxPoint x="410" y="490" as="targetPoint" />
            <mxPoint as="offset" />
          </mxGeometry>
        </mxCell>
        <mxCell id="BWCVKH76uyNcYksHZI7m-41" value="1) При оплате подписки через API&lt;br&gt;&lt;div style=&quot;&quot;&gt;&amp;nbsp;сервиса auth выдаем пользователю роль подписчика&lt;/div&gt;&lt;div style=&quot;&quot;&gt;2) При отмене подписки или истечения срока ее действия&lt;/div&gt;&lt;div style=&quot;&quot;&gt;через API сервиса auth запираем у пользователя роль.&lt;/div&gt;" style="endArrow=classic;html=1;rounded=0;exitX=0;exitY=0.5;exitDx=0;exitDy=0;entryX=1;entryY=0.5;entryDx=0;entryDy=0;align=left;" edge="1" parent="1" source="BWCVKH76uyNcYksHZI7m-21" target="BWCVKH76uyNcYksHZI7m-5">
          <mxGeometry x="0.6239" y="63" width="50" height="50" relative="1" as="geometry">
            <mxPoint x="620" y="280" as="sourcePoint" />
            <mxPoint x="670" y="230" as="targetPoint" />
            <mxPoint as="offset" />
          </mxGeometry>
        </mxCell>
      </root>
    </mxGraphModel>
  </diagram>
</mxfile>
